<svg width="18" height="18" viewBox="0 0 18 18" fill="none" xmlns="http://www.w3.org/2000/svg">
<path d="M9.00033 17.3333C4.39783 17.3333 0.666992 13.6025 0.666992 9C0.666992 4.3975 4.39783 0.666664 9.00033 0.666664C13.6028 0.666664 17.3337 4.3975 17.3337 9C17.3337 13.6025 13.6028 17.3333 9.00033 17.3333ZM9.00033 15.6667C10.7684 15.6667 12.4641 14.9643 13.7144 13.714C14.9646 12.4638 15.667 10.7681 15.667 9C15.667 7.23189 14.9646 5.5362 13.7144 4.28595C12.4641 3.03571 10.7684 2.33333 9.00033 2.33333C7.23222 2.33333 5.53652 3.03571 4.28628 4.28595C3.03604 5.5362 2.33366 7.23189 2.33366 9C2.33366 10.7681 3.03604 12.4638 4.28628 13.714C5.53652 14.9643 7.23222 15.6667 9.00033 15.6667ZM8.16699 11.5H9.83366V13.1667H8.16699V11.5ZM9.83366 10.1292V10.6667H8.16699V9.41666C8.16699 9.19565 8.25479 8.98369 8.41107 8.82741C8.56735 8.67113 8.77931 8.58333 9.00033 8.58333C9.23706 8.58332 9.46892 8.51608 9.66893 8.38944C9.86894 8.2628 10.0289 8.08197 10.1301 7.86798C10.2314 7.654 10.2698 7.41566 10.2409 7.1807C10.212 6.94574 10.117 6.72382 9.96685 6.54076C9.81675 6.3577 9.61775 6.22102 9.39301 6.14664C9.16827 6.07226 8.92702 6.06322 8.69735 6.12059C8.46767 6.17795 8.25901 6.29936 8.09563 6.47068C7.93226 6.642 7.82089 6.85619 7.77449 7.08833L6.13949 6.76083C6.24085 6.25423 6.47492 5.78364 6.81776 5.39715C7.1606 5.01067 7.59992 4.72215 8.09082 4.5611C8.58171 4.40005 9.10656 4.37224 9.61173 4.48051C10.1169 4.58878 10.5842 4.82926 10.966 5.17735C11.3478 5.52544 11.6303 5.96867 11.7846 6.46172C11.9389 6.95477 11.9595 7.47995 11.8444 7.98359C11.7292 8.48722 11.4824 8.95125 11.1291 9.32822C10.7758 9.70519 10.3288 9.98159 9.83366 10.1292Z" fill="#343434"/>
</svg>
