<svg width="16" height="17" viewBox="0 0 16 17" fill="none" xmlns="http://www.w3.org/2000/svg">
<path d="M14.7215 8.0969C14.1722 6.93971 13.5186 5.99596 12.7605 5.26565L11.9655 6.06065C12.6138 6.68018 13.1785 7.49065 13.6668 8.50002C12.3668 11.1906 10.5215 12.4688 7.9996 12.4688C7.24262 12.4688 6.54538 12.3522 5.90788 12.1191L5.04648 12.9805C5.93189 13.3893 6.91627 13.5938 7.9996 13.5938C11.0027 13.5938 13.2434 12.0297 14.7215 8.90159C14.7809 8.77578 14.8117 8.63838 14.8117 8.49924C14.8117 8.36011 14.7809 8.2227 14.7215 8.0969ZM13.7282 3.0869L13.0621 2.42002C13.0505 2.4084 13.0367 2.39918 13.0215 2.39289C13.0064 2.3866 12.9901 2.38336 12.9737 2.38336C12.9572 2.38336 12.941 2.3866 12.9258 2.39289C12.9106 2.39918 12.8968 2.4084 12.8852 2.42002L11.1763 4.12815C10.2341 3.6469 9.17523 3.40627 7.9996 3.40627C4.99648 3.40627 2.75585 4.97034 1.27773 8.09846C1.21831 8.22427 1.1875 8.36167 1.1875 8.5008C1.1875 8.63994 1.21831 8.77734 1.27773 8.90315C1.86825 10.1469 2.57919 11.1438 3.41054 11.8939L1.7571 13.5469C1.73368 13.5703 1.72052 13.6021 1.72052 13.6353C1.72052 13.6684 1.73368 13.7002 1.7571 13.7236L2.42413 14.3906C2.44757 14.4141 2.47935 14.4272 2.51249 14.4272C2.54563 14.4272 2.57741 14.4141 2.60085 14.3906L13.7282 3.26377C13.7398 3.25216 13.749 3.23838 13.7553 3.2232C13.7616 3.20803 13.7649 3.19176 13.7649 3.17534C13.7649 3.15891 13.7616 3.14264 13.7553 3.12747C13.749 3.11229 13.7398 3.09851 13.7282 3.0869ZM2.33241 8.50002C3.63398 5.8094 5.47929 4.53127 7.9996 4.53127C8.85179 4.53127 9.62663 4.67752 10.3296 4.97487L9.23116 6.0733C8.71096 5.79575 8.11532 5.69274 7.53211 5.77947C6.9489 5.8662 6.40901 6.13808 5.99209 6.55501C5.57516 6.97193 5.30328 7.51182 5.21655 8.09503C5.12982 8.67824 5.23283 9.27388 5.51038 9.79409L4.20695 11.0975C3.48554 10.4608 2.86366 9.59815 2.33241 8.50002ZM6.1871 8.50002C6.18738 8.2245 6.25264 7.95292 6.37759 7.70736C6.50254 7.4618 6.68365 7.24917 6.90621 7.08676C7.12878 6.92434 7.38651 6.81671 7.65849 6.77262C7.93046 6.72853 8.209 6.74921 8.47148 6.83299L6.27007 9.0344C6.21489 8.86165 6.1869 8.68137 6.1871 8.50002Z" fill="#455360"/>
<path d="M7.93664 10.25C7.88258 10.25 7.8293 10.2475 7.77648 10.2427L6.95117 11.068C7.44756 11.2581 7.98839 11.3003 8.50828 11.1896C9.02817 11.0789 9.50486 10.8199 9.88072 10.4441C10.2566 10.0682 10.5155 9.59152 10.6262 9.07164C10.737 8.55175 10.6947 8.01092 10.5046 7.51453L9.6793 8.33984C9.68414 8.39265 9.68664 8.44593 9.68664 8.5C9.68676 8.72984 9.64158 8.95746 9.55368 9.16984C9.46578 9.38221 9.33688 9.57518 9.17435 9.73771C9.01183 9.90023 8.81886 10.0291 8.60648 10.117C8.39411 10.2049 8.16649 10.2501 7.93664 10.25Z" fill="#455360"/>
</svg>
