<svg width="64" height="64" viewBox="0 0 64 64" fill="none" xmlns="http://www.w3.org/2000/svg">
<rect width="64" height="64" fill="#E5E5E5"/>
<g clip-path="url(#clip0_529_3822)">
<rect width="1440" height="3094" transform="translate(-1295 -1513)" fill="#F9F9FA"/>
<rect width="64" height="64" rx="32" fill="#F0F0F0"/>
<path d="M27.251 36.6901C26.6163 36.326 26.1875 35.6422 26.1875 34.8594C26.1875 31.6285 28.816 29 32.0469 29H34.4615L34.5752 27.125H20.8936L21.8763 43.3394C21.8988 43.7105 22.2062 44 22.5781 44H26.8925C26.4501 43.412 26.1875 42.6815 26.1875 41.8906C26.1875 40.9789 26.769 40.2006 27.5806 39.9067C27.2929 39.4656 27.125 38.9397 27.125 38.375C27.125 37.8098 27.2933 37.2833 27.5815 36.8419C27.3522 36.7902 27.225 36.7395 27.251 36.6901Z" fill="#DA6553"/>
<path d="M27.7336 25.7189C27.7342 25.7189 27.7347 25.7188 27.7353 25.7188H34.7656C35.154 25.7188 35.4688 25.404 35.4688 25.0156C35.4688 24.6273 35.154 24.3125 34.7656 24.3125H29.0324L30.9277 21.4062H33.3594C33.7477 21.4062 34.0625 21.0915 34.0625 20.7031C34.0625 20.3148 33.7477 20 33.3594 20H30.5469C30.3092 20 30.0876 20.1199 29.958 20.319L27.3535 24.3125H20.7031C20.3148 24.3125 20 24.6273 20 25.0156C20 25.404 20.3148 25.7188 20.7031 25.7188H27.7311C27.732 25.7188 27.7329 25.7189 27.7336 25.7189Z" fill="#DA6553"/>
<path d="M27.5938 34.8594C27.5938 35.2477 27.9085 35.5625 28.2969 35.5625H43.2969C43.6852 35.5625 44 35.2477 44 34.8594C44 32.4039 42.0023 30.4062 39.5469 30.4062H32.0469C29.5914 30.4062 27.5938 32.4039 27.5938 34.8594Z" fill="#DA6553"/>
<path d="M29.9375 36.9688C29.1608 36.9688 28.5312 37.5983 28.5312 38.375C28.5312 39.1517 29.1608 39.7812 29.9375 39.7812H41.6562C42.433 39.7812 43.0625 39.1517 43.0625 38.375C43.0625 37.5983 42.433 36.9688 41.6562 36.9688H29.9375Z" fill="#DA6553"/>
<path d="M43.2969 41.1875H28.2969C27.9085 41.1875 27.5938 41.5023 27.5938 41.8906C27.5938 43.0537 28.54 44 29.7031 44H41.8906C43.0537 44 44 43.0537 44 41.8906C44 41.5023 43.6852 41.1875 43.2969 41.1875Z" fill="#DA6553"/>
</g>
<defs>
<clipPath id="clip0_529_3822">
<rect width="1440" height="3094" fill="white" transform="translate(-1295 -1513)"/>
</clipPath>
</defs>
</svg>
