<svg width="64" height="64" viewBox="0 0 64 64" fill="none" xmlns="http://www.w3.org/2000/svg">
<rect width="64" height="64" fill="#E5E5E5"/>
<g clip-path="url(#clip0_529_3822)">
<rect width="1440" height="3094" transform="translate(-166 -1513)" fill="#F9F9FA"/>
<g filter="url(#filter0_d_529_3822)">
</g>
<rect width="64" height="64" rx="32" fill="#F0F0F0"/>
<g clip-path="url(#clip1_529_3822)">
<path d="M22.4375 44H20.7031C20.3148 44 20 43.6852 20 43.2969V34.8594C20 34.4711 20.3148 34.1562 20.7031 34.1562H22.4375C22.8258 34.1562 23.1406 34.4711 23.1406 34.8594V43.2969C23.1406 43.6852 22.8258 44 22.4375 44Z" fill="#DA6553"/>
<path d="M43.1212 36.3506C42.5791 36.0522 41.9176 36.0725 41.3949 36.4036L38.8224 38.0329C38.7446 38.6966 38.4524 39.3125 37.9763 39.8C37.3977 40.3925 36.6237 40.7188 35.7969 40.7188H32.3011C31.9225 40.7188 31.5967 40.4278 31.5789 40.0496C31.5599 39.6458 31.8816 39.3125 32.2812 39.3125H35.7969C36.7146 39.3125 37.4589 38.5549 37.437 37.6323C37.4158 36.7367 36.662 36.0312 35.7661 36.0312H31.8125L31.3539 35.6873C30.4405 35.0022 29.3088 34.625 28.167 34.625C27.2046 34.625 26.2596 34.8868 25.4343 35.3819L24.5469 35.9144V43.0625H36.3653C37.0487 43.0625 37.7173 42.8633 38.2892 42.4894L43.2317 39.2578C43.7127 38.9431 44 38.4121 44 37.8373C44 37.2185 43.6632 36.6489 43.1212 36.3506Z" fill="#DA6553"/>
<path d="M29.9375 20C26.7066 20 24.0781 22.6285 24.0781 25.8594C24.0781 29.0902 26.7066 31.7188 29.9375 31.7188C33.1684 31.7188 35.7969 29.0902 35.7969 25.8594C35.7969 22.6285 33.1684 20 29.9375 20ZM30.6406 28.769V28.9062C30.6406 29.2946 30.3258 29.6094 29.9375 29.6094C29.5492 29.6094 29.2344 29.2946 29.2344 28.9062V28.7683C28.6662 28.537 28.2277 28.0335 28.1002 27.4055C28.0229 27.025 28.2687 26.6539 28.6493 26.5765C29.0298 26.4994 29.4011 26.7451 29.4784 27.1257C29.5224 27.3425 29.7155 27.5 29.9375 27.5C30.196 27.5 30.4063 27.2897 30.4063 27.0312C30.4063 26.7727 30.196 26.5625 29.9375 26.5625C28.9037 26.5625 28.0625 25.7213 28.0625 24.6875C28.0625 23.9022 28.548 23.2285 29.2344 22.9497V22.8125C29.2344 22.4242 29.5492 22.1094 29.9375 22.1094C30.3259 22.1094 30.6407 22.4242 30.6407 22.8125V22.9504C31.2089 23.1818 31.6474 23.6852 31.7749 24.3132C31.8521 24.6937 31.6062 25.0649 31.2257 25.1422C30.8452 25.2195 30.474 24.9736 30.3967 24.5931C30.3526 24.3762 30.1595 24.2188 29.9375 24.2188C29.679 24.2188 29.4688 24.429 29.4688 24.6875C29.4688 24.946 29.679 25.1562 29.9375 25.1562C30.9714 25.1562 31.8125 25.9974 31.8125 27.0312C31.8125 27.8165 31.327 28.4902 30.6406 28.769Z" fill="#DA6553"/>
<path d="M43.9335 29.4597C43.8177 29.2126 43.5695 29.0548 43.2967 29.0548H42.2732C41.6518 26.6004 40.2508 24.3793 38.2861 22.7523C37.3723 21.9954 36.3541 21.3842 35.271 20.9314C36.4694 22.2274 37.203 23.9592 37.203 25.8594C37.203 26.4438 37.1331 27.0121 37.0022 27.557C37.3287 28.0249 37.6048 28.5272 37.8218 29.0548H37.203C36.9301 29.0548 36.6819 29.2126 36.5662 29.4597C36.4505 29.7067 36.4882 29.9984 36.6628 30.208L39.7097 33.8643C39.8433 34.0246 40.0411 34.1173 40.2498 34.1173C40.4585 34.1173 40.6564 34.0245 40.79 33.8643L43.8369 30.208C44.0115 29.9984 44.0492 29.7067 43.9335 29.4597Z" fill="#DA6553"/>
</g>
</g>
<defs>
<filter id="filter0_d_529_3822" x="-92.9865" y="-755.399" width="471.857" height="762.973" filterUnits="userSpaceOnUse" color-interpolation-filters="sRGB">
<feFlood flood-opacity="0" result="BackgroundImageFix"/>
<feColorMatrix in="SourceAlpha" type="matrix" values="0 0 0 0 0 0 0 0 0 0 0 0 0 0 0 0 0 0 127 0" result="hardAlpha"/>
<feOffset dy="63.588"/>
<feGaussianBlur stdDeviation="46.4933"/>
<feColorMatrix type="matrix" values="0 0 0 0 0.0705882 0 0 0 0 0.0980392 0 0 0 0 0.133333 0 0 0 0.0776796 0"/>
<feBlend mode="normal" in2="BackgroundImageFix" result="effect1_dropShadow_529_3822"/>
<feBlend mode="normal" in="SourceGraphic" in2="effect1_dropShadow_529_3822" result="shape"/>
</filter>
<clipPath id="clip0_529_3822">
<rect width="1440" height="3094" fill="white" transform="translate(-166 -1513)"/>
</clipPath>
<clipPath id="clip1_529_3822">
<rect width="24" height="24" fill="white" transform="translate(20 20)"/>
</clipPath>
</defs>
</svg>
