<svg width="64" height="64" viewBox="0 0 64 64" fill="none" xmlns="http://www.w3.org/2000/svg">
<rect width="64" height="64" fill="#E5E5E5"/>
<g clip-path="url(#clip0_529_3822)">
<rect width="1440" height="3094" transform="translate(-525 -1513)" fill="#F9F9FA"/>
<g filter="url(#filter0_d_529_3822)">
</g>
<rect width="64" height="64" rx="32" fill="#F0F0F0"/>
<g clip-path="url(#clip1_529_3822)">
<path d="M31.9949 40.8417L20 33.2765V44.0001H44V33.4693L31.9949 40.8417Z" fill="#DA6553"/>
<path d="M23.0469 20V33.3542L32.0061 39.0045L40.9531 33.5098V20L23.0469 20ZM31.9864 28.5781C33.5764 28.5781 34.8692 29.7509 34.8692 31.1923C34.8692 32.4139 33.9406 33.4419 32.6895 33.7273V34.8125H31.2833V33.7273C30.0327 33.4419 29.1036 32.4139 29.1036 31.1923H30.5098C30.5098 31.858 31.1727 32.3998 31.9864 32.3998C32.8006 32.3998 33.463 31.858 33.463 31.1923C33.463 30.5263 32.8006 29.9844 31.9864 29.9844C30.3969 29.9844 29.1036 28.8116 29.1036 27.3702C29.1036 26.1486 30.0327 25.1206 31.2833 24.8352V23.75H32.6895V24.8352C33.9406 25.1206 34.8692 26.1486 34.8692 27.3702H33.463C33.463 26.7045 32.8006 26.1627 31.9864 26.1627C31.1727 26.1627 30.5098 26.7045 30.5098 27.3702C30.5098 28.0363 31.1727 28.5781 31.9864 28.5781Z" fill="#DA6553"/>
<path d="M21.6406 28.3292L20 29.5912V31.4322L21.6406 32.467V28.3292Z" fill="#DA6553"/>
<path d="M42.3594 28.3292V32.6463L44 31.6388V29.5912L42.3594 28.3292Z" fill="#DA6553"/>
</g>
</g>
<defs>
<filter id="filter0_d_529_3822" x="-451.987" y="-755.399" width="471.857" height="762.973" filterUnits="userSpaceOnUse" color-interpolation-filters="sRGB">
<feFlood flood-opacity="0" result="BackgroundImageFix"/>
<feColorMatrix in="SourceAlpha" type="matrix" values="0 0 0 0 0 0 0 0 0 0 0 0 0 0 0 0 0 0 127 0" result="hardAlpha"/>
<feOffset dy="63.588"/>
<feGaussianBlur stdDeviation="46.4933"/>
<feColorMatrix type="matrix" values="0 0 0 0 0.0705882 0 0 0 0 0.0980392 0 0 0 0 0.133333 0 0 0 0.0776796 0"/>
<feBlend mode="normal" in2="BackgroundImageFix" result="effect1_dropShadow_529_3822"/>
<feBlend mode="normal" in="SourceGraphic" in2="effect1_dropShadow_529_3822" result="shape"/>
</filter>
<clipPath id="clip0_529_3822">
<rect width="1440" height="3094" fill="white" transform="translate(-525 -1513)"/>
</clipPath>
<clipPath id="clip1_529_3822">
<rect width="24" height="24" fill="white" transform="translate(20 21)"/>
</clipPath>
</defs>
</svg>
