<svg width="75" height="75" viewBox="0 0 75 75" fill="none" xmlns="http://www.w3.org/2000/svg">
<rect width="75" height="75" fill="#E5E5E5"/>
<g clip-path="url(#clip0_529_3822)">
<rect width="1440" height="3520" transform="translate(-1324 -2052)" fill="#F9F9FA"/>
<rect x="-46" y="-40" width="346" height="280" rx="12" fill="#AFCED4"/>
<circle cx="37.5" cy="37.5" r="37.5" fill="white" fill-opacity="0.48"/>
<g clip-path="url(#clip1_529_3822)">
<path d="M52.2032 32.0714L42.9288 22.797C41.8664 21.7346 40.1377 21.7347 39.0754 22.797L27.4378 34.4347H24.7247C23.2223 34.4347 22 35.657 22 37.1594V50.2754C22 51.7779 23.2223 53.0002 24.7247 53.0002H45.5912C47.0937 53.0002 48.316 51.7779 48.316 50.2754V39.8119L52.2032 35.9247C53.2656 34.8624 53.2656 33.1338 52.2032 32.0714ZM40.3599 24.0814C40.537 23.9044 40.7696 23.8158 41.0021 23.8158C41.2347 23.8158 41.4673 23.9044 41.6443 24.0814L46.4232 28.8603L40.8488 34.4347H30.0066L40.3599 24.0814ZM46.4995 50.2754C46.4995 50.7763 46.092 51.1837 45.5912 51.1837H24.7247C24.2239 51.1837 23.8165 50.7763 23.8165 50.2754V37.1594C23.8165 36.6586 24.2239 36.2512 24.7247 36.2512H45.5912C46.092 36.2512 46.4995 36.6586 46.4995 37.1594V50.2754ZM45.9608 34.4604C45.8399 34.444 45.7166 34.4347 45.5912 34.4347H43.4176L47.7076 30.1447L48.9921 31.4292L45.9608 34.4604ZM50.9187 34.6403L48.316 37.2431V37.1594C48.316 36.469 48.0574 35.8382 47.6326 35.3575L50.2766 32.7136L50.9187 33.3558C51.2729 33.7099 51.2729 34.2862 50.9187 34.6403Z" fill="#212E53"/>
<path d="M25.6328 46.6177H29.0126V48.4342H25.6328V46.6177Z" fill="#212E53"/>
<path d="M30.8564 46.6177H34.2362V48.4342H30.8564V46.6177Z" fill="#212E53"/>
<path d="M36.0801 46.6177H39.4599V48.4342H36.0801V46.6177Z" fill="#212E53"/>
<path d="M41.3037 46.6177H44.6835V48.4342H41.3037V46.6177Z" fill="#212E53"/>
<path d="M31.7645 39.0002H25.6328V44.4497H31.7645V39.0002ZM29.948 42.6332H27.4493V40.8167H29.948V42.6332Z" fill="#212E53"/>
</g>
</g>
<defs>
<clipPath id="clip0_529_3822">
<rect width="1440" height="3520" fill="white" transform="translate(-1324 -2052)"/>
</clipPath>
<clipPath id="clip1_529_3822">
<rect width="31" height="31" fill="white" transform="translate(22 22)"/>
</clipPath>
</defs>
</svg>
