<svg width="12" height="13" viewBox="0 0 12 13" fill="none" xmlns="http://www.w3.org/2000/svg">
<rect width="12" height="13" fill="#E5E5E5"/>
<g clip-path="url(#clip0_529_3822)">
<rect x="-248" y="-2316" width="640" height="2407" rx="30" fill="#F9F9FA"/>
<g clip-path="url(#clip1_529_3822)">
<rect width="640" height="383" transform="translate(-248 -293)" fill="white"/>
<path d="M6.01805 2.99384C4.33638 2.99384 2.97994 4.40061 2.97994 6.14467C2.97994 7.88873 4.33638 9.2955 6.01805 9.2955C7.69971 9.2955 9.05615 7.88873 9.05615 6.14467C9.05615 4.40061 7.69971 2.99384 6.01805 2.99384ZM6.01805 8.19312C4.93131 8.19312 4.04288 7.27447 4.04288 6.14467C4.04288 5.01487 4.92867 4.09622 6.01805 4.09622C7.10743 4.09622 7.99321 5.01487 7.99321 6.14467C7.99321 7.27447 7.10478 8.19312 6.01805 8.19312ZM9.88905 2.86495C9.88905 3.27355 9.57175 3.59987 9.18042 3.59987C8.78645 3.59987 8.4718 3.2708 8.4718 2.86495C8.4718 2.4591 8.78909 2.13003 9.18042 2.13003C9.57175 2.13003 9.88905 2.4591 9.88905 2.86495ZM11.9012 3.61084C11.8563 2.62638 11.6395 1.75435 10.9441 1.03588C10.2513 0.317414 9.41046 0.0925505 8.46122 0.0431902C7.48289 -0.0143967 4.55056 -0.0143967 3.57223 0.0431902C2.62563 0.0898083 1.7848 0.314672 1.08939 1.03314C0.39399 1.7516 0.179815 2.62364 0.132221 3.6081C0.0766945 4.62273 0.0766945 7.66387 0.132221 8.6785C0.177171 9.66296 0.39399 10.535 1.08939 11.2535C1.7848 11.9719 2.62299 12.1968 3.57223 12.2461C4.55056 12.3037 7.48289 12.3037 8.46122 12.2461C9.41046 12.1995 10.2513 11.9747 10.9441 11.2535C11.6368 10.535 11.8536 9.66296 11.9012 8.6785C11.9568 7.66387 11.9568 4.62547 11.9012 3.61084ZM10.6373 9.76716C10.4311 10.3046 10.0318 10.7187 9.51094 10.9354C8.73092 11.2562 6.88003 11.1822 6.01805 11.1822C5.15606 11.1822 3.30253 11.2535 2.52516 10.9354C2.00691 10.7215 1.60764 10.3074 1.39876 9.76716C1.08939 8.9582 1.16079 7.03864 1.16079 6.14467C1.16079 5.2507 1.09204 3.32839 1.39876 2.52217C1.605 1.98469 2.00426 1.57062 2.52516 1.35398C3.30517 1.03314 5.15606 1.10718 6.01805 1.10718C6.88003 1.10718 8.73356 1.03588 9.51094 1.35398C10.0292 1.56787 10.4284 1.98195 10.6373 2.52217C10.9467 3.33113 10.8753 5.2507 10.8753 6.14467C10.8753 7.03864 10.9467 8.96095 10.6373 9.76716Z" fill="#4A919E"/>
</g>
</g>
<defs>
<clipPath id="clip0_529_3822">
<rect x="-248" y="-2316" width="640" height="2407" rx="30" fill="white"/>
</clipPath>
<clipPath id="clip1_529_3822">
<rect width="640" height="383" fill="white" transform="translate(-248 -293)"/>
</clipPath>
</defs>
</svg>
