<svg width="13" height="12" viewBox="0 0 13 12" fill="none" xmlns="http://www.w3.org/2000/svg">
<rect width="13" height="12" fill="#E5E5E5"/>
<g clip-path="url(#clip0_529_3822)">
<rect x="-440" y="-2316" width="640" height="2407" rx="30" fill="#F9F9FA"/>
<g clip-path="url(#clip1_529_3822)">
<rect width="640" height="383" transform="translate(-440 -293)" fill="white"/>
<path d="M11.7413 0H1.56138C1.11188 0 0.741699 0.396621 0.741699 0.872566V10.9996C0.741699 11.4756 1.11188 11.8457 1.56138 11.8457H11.7413C12.1908 11.8457 12.5874 11.4756 12.5874 10.9996V0.872566C12.5874 0.396621 12.1908 0 11.7413 0ZM4.31129 10.1535H2.56615V4.52148H4.31129V10.1535ZM3.43872 3.72823C2.85701 3.72823 2.40751 3.27873 2.40751 2.72346C2.40751 2.16819 2.85701 1.69225 3.43872 1.69225C3.99399 1.69225 4.44349 2.16819 4.44349 2.72346C4.44349 3.27873 3.99399 3.72823 3.43872 3.72823ZM10.8952 10.1535H9.12362V7.40359C9.12362 6.76899 9.12362 5.92287 8.22461 5.92287C7.29916 5.92287 7.16695 6.63679 7.16695 7.37715V10.1535H5.42182V4.52148H7.08763V5.28828H7.11407C7.35204 4.83877 7.93375 4.36283 8.77988 4.36283C10.5515 4.36283 10.8952 5.55269 10.8952 7.05985V10.1535Z" fill="#4A919E"/>
</g>
</g>
<defs>
<clipPath id="clip0_529_3822">
<rect x="-440" y="-2316" width="640" height="2407" rx="30" fill="white"/>
</clipPath>
<clipPath id="clip1_529_3822">
<rect width="640" height="383" fill="white" transform="translate(-440 -293)"/>
</clipPath>
</defs>
</svg>
