<svg width="235" height="18" viewBox="0 0 235 18" fill="none" xmlns="http://www.w3.org/2000/svg">
<rect width="235" height="18" fill="#E5E5E5"/>
<g clip-path="url(#clip0_529_3822)">
<rect width="1440" height="3520" transform="translate(-397 -923)" fill="#F9F9FA"/>
<g opacity="0.5">
<path d="M0.339746 9L9 17.6603L17.6603 9L9 0.339746L0.339746 9ZM234.66 9L226 0.339746L217.34 9L226 17.6603L234.66 9ZM11.5833 10.5C12.4118 10.5 13.0833 9.82843 13.0833 9C13.0833 8.17157 12.4118 7.5 11.5833 7.5V10.5ZM21.9167 7.5C21.0882 7.5 20.4167 8.17157 20.4167 9C20.4167 9.82843 21.0882 10.5 21.9167 10.5V7.5ZM27.0833 10.5C27.9118 10.5 28.5833 9.82843 28.5833 9C28.5833 8.17157 27.9118 7.5 27.0833 7.5V10.5ZM37.4167 7.5C36.5882 7.5 35.9167 8.17157 35.9167 9C35.9167 9.82843 36.5882 10.5 37.4167 10.5V7.5ZM42.5833 10.5C43.4118 10.5 44.0833 9.82843 44.0833 9C44.0833 8.17157 43.4118 7.5 42.5833 7.5V10.5ZM52.9167 7.5C52.0882 7.5 51.4167 8.17157 51.4167 9C51.4167 9.82843 52.0882 10.5 52.9167 10.5V7.5ZM58.0833 10.5C58.9118 10.5 59.5833 9.82843 59.5833 9C59.5833 8.17157 58.9118 7.5 58.0833 7.5V10.5ZM68.4167 7.5C67.5882 7.5 66.9167 8.17157 66.9167 9C66.9167 9.82843 67.5882 10.5 68.4167 10.5V7.5ZM73.5833 10.5C74.4118 10.5 75.0833 9.82843 75.0833 9C75.0833 8.17157 74.4118 7.5 73.5833 7.5V10.5ZM83.9167 7.5C83.0882 7.5 82.4167 8.17157 82.4167 9C82.4167 9.82843 83.0882 10.5 83.9167 10.5V7.5ZM89.0833 10.5C89.9118 10.5 90.5833 9.82843 90.5833 9C90.5833 8.17157 89.9118 7.5 89.0833 7.5V10.5ZM99.4167 7.5C98.5882 7.5 97.9167 8.17157 97.9167 9C97.9167 9.82843 98.5882 10.5 99.4167 10.5V7.5ZM104.583 10.5C105.412 10.5 106.083 9.82843 106.083 9C106.083 8.17157 105.412 7.5 104.583 7.5V10.5ZM114.917 7.5C114.088 7.5 113.417 8.17157 113.417 9C113.417 9.82843 114.088 10.5 114.917 10.5V7.5ZM120.083 10.5C120.912 10.5 121.583 9.82843 121.583 9C121.583 8.17157 120.912 7.5 120.083 7.5V10.5ZM130.417 7.5C129.588 7.5 128.917 8.17157 128.917 9C128.917 9.82843 129.588 10.5 130.417 10.5V7.5ZM135.583 10.5C136.412 10.5 137.083 9.82843 137.083 9C137.083 8.17157 136.412 7.5 135.583 7.5V10.5ZM145.917 7.5C145.088 7.5 144.417 8.17157 144.417 9C144.417 9.82843 145.088 10.5 145.917 10.5V7.5ZM151.083 10.5C151.912 10.5 152.583 9.82843 152.583 9C152.583 8.17157 151.912 7.5 151.083 7.5V10.5ZM161.417 7.5C160.588 7.5 159.917 8.17157 159.917 9C159.917 9.82843 160.588 10.5 161.417 10.5V7.5ZM166.583 10.5C167.412 10.5 168.083 9.82843 168.083 9C168.083 8.17157 167.412 7.5 166.583 7.5V10.5ZM176.917 7.5C176.088 7.5 175.417 8.17157 175.417 9C175.417 9.82843 176.088 10.5 176.917 10.5V7.5ZM182.083 10.5C182.912 10.5 183.583 9.82843 183.583 9C183.583 8.17157 182.912 7.5 182.083 7.5V10.5ZM192.417 7.5C191.588 7.5 190.917 8.17157 190.917 9C190.917 9.82843 191.588 10.5 192.417 10.5V7.5ZM197.583 10.5C198.412 10.5 199.083 9.82843 199.083 9C199.083 8.17157 198.412 7.5 197.583 7.5V10.5ZM207.917 7.5C207.088 7.5 206.417 8.17157 206.417 9C206.417 9.82843 207.088 10.5 207.917 10.5V7.5ZM213.083 10.5C213.912 10.5 214.583 9.82843 214.583 9C214.583 8.17157 213.912 7.5 213.083 7.5V10.5ZM223.417 7.5C222.588 7.5 221.917 8.17157 221.917 9C221.917 9.82843 222.588 10.5 223.417 10.5V7.5ZM9 10.5H11.5833V7.5H9V10.5ZM21.9167 10.5H27.0833V7.5H21.9167V10.5ZM37.4167 10.5H42.5833V7.5H37.4167V10.5ZM52.9167 10.5H58.0833V7.5H52.9167V10.5ZM68.4167 10.5H73.5833V7.5H68.4167V10.5ZM83.9167 10.5H89.0833V7.5H83.9167V10.5ZM99.4167 10.5H104.583V7.5H99.4167V10.5ZM114.917 10.5H120.083V7.5H114.917V10.5ZM130.417 10.5H135.583V7.5H130.417V10.5ZM145.917 10.5H151.083V7.5H145.917V10.5ZM161.417 10.5H166.583V7.5H161.417V10.5ZM176.917 10.5H182.083V7.5H176.917V10.5ZM192.417 10.5H197.583V7.5H192.417V10.5ZM207.917 10.5H213.083V7.5H207.917V10.5ZM223.417 10.5H226V7.5H223.417V10.5Z" fill="url(#paint0_linear_529_3822)"/>
</g>
<g filter="url(#filter0_dd_529_3822)">
<rect x="-124" y="-36" width="90" height="90" rx="20" fill="#EBA2D8"/>
</g>
<g filter="url(#filter1_dd_529_3822)">
<rect x="269" y="-36" width="90" height="90" rx="20" fill="#4A919E"/>
</g>
</g>
<defs>
<filter id="filter0_dd_529_3822" x="-204" y="-36" width="250" height="270" filterUnits="userSpaceOnUse" color-interpolation-filters="sRGB">
<feFlood flood-opacity="0" result="BackgroundImageFix"/>
<feColorMatrix in="SourceAlpha" type="matrix" values="0 0 0 0 0 0 0 0 0 0 0 0 0 0 0 0 0 0 127 0" result="hardAlpha"/>
<feOffset dy="64.8148"/>
<feGaussianBlur stdDeviation="23.4259"/>
<feColorMatrix type="matrix" values="0 0 0 0 0.588235 0 0 0 0 0.447059 0 0 0 0 1 0 0 0 0.0531481 0"/>
<feBlend mode="normal" in2="BackgroundImageFix" result="effect1_dropShadow_529_3822"/>
<feColorMatrix in="SourceAlpha" type="matrix" values="0 0 0 0 0 0 0 0 0 0 0 0 0 0 0 0 0 0 127 0" result="hardAlpha"/>
<feOffset dy="100"/>
<feGaussianBlur stdDeviation="40"/>
<feColorMatrix type="matrix" values="0 0 0 0 0.588235 0 0 0 0 0.447059 0 0 0 0 1 0 0 0 0.07 0"/>
<feBlend mode="normal" in2="effect1_dropShadow_529_3822" result="effect2_dropShadow_529_3822"/>
<feBlend mode="normal" in="SourceGraphic" in2="effect2_dropShadow_529_3822" result="shape"/>
</filter>
<filter id="filter1_dd_529_3822" x="189" y="-36" width="250" height="270" filterUnits="userSpaceOnUse" color-interpolation-filters="sRGB">
<feFlood flood-opacity="0" result="BackgroundImageFix"/>
<feColorMatrix in="SourceAlpha" type="matrix" values="0 0 0 0 0 0 0 0 0 0 0 0 0 0 0 0 0 0 127 0" result="hardAlpha"/>
<feOffset dy="64.8148"/>
<feGaussianBlur stdDeviation="23.4259"/>
<feColorMatrix type="matrix" values="0 0 0 0 0.301961 0 0 0 0 0.87451 0 0 0 0 0.992157 0 0 0 0.0531481 0"/>
<feBlend mode="normal" in2="BackgroundImageFix" result="effect1_dropShadow_529_3822"/>
<feColorMatrix in="SourceAlpha" type="matrix" values="0 0 0 0 0 0 0 0 0 0 0 0 0 0 0 0 0 0 127 0" result="hardAlpha"/>
<feOffset dy="100"/>
<feGaussianBlur stdDeviation="40"/>
<feColorMatrix type="matrix" values="0 0 0 0 0.301961 0 0 0 0 0.87451 0 0 0 0 0.992157 0 0 0 0.07 0"/>
<feBlend mode="normal" in2="effect1_dropShadow_529_3822" result="effect2_dropShadow_529_3822"/>
<feBlend mode="normal" in="SourceGraphic" in2="effect2_dropShadow_529_3822" result="shape"/>
</filter>
<linearGradient id="paint0_linear_529_3822" x1="14.6658" y1="10.4994" x2="231.665" y2="11.1416" gradientUnits="userSpaceOnUse">
<stop offset="0.0552082" stop-color="#2020FF"/>
<stop offset="1" stop-color="#45C872"/>
</linearGradient>
<clipPath id="clip0_529_3822">
<rect width="1440" height="3520" fill="white" transform="translate(-397 -923)"/>
</clipPath>
</defs>
</svg>
