<svg width="15" height="12" viewBox="0 0 15 12" fill="none" xmlns="http://www.w3.org/2000/svg">
<rect width="15" height="12" fill="#E5E5E5"/>
<g clip-path="url(#clip0_529_3822)">
<rect x="-376" y="-2316" width="640" height="2407" rx="30" fill="#F9F9FA"/>
<g clip-path="url(#clip1_529_3822)">
<rect width="640" height="383" transform="translate(-376 -293)" fill="white"/>
<path d="M13.2952 2.94003C13.8516 2.51187 14.3523 1.99808 14.7417 1.39865C14.241 1.62701 13.6568 1.79827 13.0727 1.85536C13.6847 1.48429 14.1297 0.913406 14.3523 0.199808C13.7959 0.542335 13.1561 0.799231 12.5163 0.94195C11.96 0.342527 11.2089 0 10.3743 0C8.76092 0 7.45348 1.34157 7.45348 2.99711C7.45348 3.22547 7.4813 3.45382 7.53694 3.68217C5.11679 3.53945 2.947 2.3406 1.50048 0.542335C1.25012 0.970494 1.11103 1.48429 1.11103 2.05516C1.11103 3.08275 1.61175 3.99615 2.41846 4.53849C1.94556 4.50994 1.47266 4.39577 1.08321 4.16742V4.19596C1.08321 5.6517 2.08465 6.85055 3.4199 7.13599C3.19736 7.19308 2.91918 7.25016 2.66882 7.25016C2.4741 7.25016 2.30719 7.22162 2.11247 7.19308C2.4741 8.39192 3.55899 9.24824 4.83861 9.27678C3.83717 10.076 2.58537 10.5613 1.2223 10.5613C0.97194 10.5613 0.749398 10.5327 0.526855 10.5042C1.80647 11.3605 3.33645 11.8457 5.00552 11.8457C10.3743 11.8457 13.2952 7.30725 13.2952 3.33964C13.2952 3.19692 13.2952 3.08275 13.2952 2.94003Z" fill="#4A919E"/>
</g>
</g>
<defs>
<clipPath id="clip0_529_3822">
<rect x="-376" y="-2316" width="640" height="2407" rx="30" fill="white"/>
</clipPath>
<clipPath id="clip1_529_3822">
<rect width="640" height="383" fill="white" transform="translate(-376 -293)"/>
</clipPath>
</defs>
</svg>
