<svg width="18" height="12" viewBox="0 0 18 12" fill="none" xmlns="http://www.w3.org/2000/svg">
<rect width="18" height="12" fill="#E5E5E5"/>
<g clip-path="url(#clip0_529_3822)">
<rect x="-309" y="-2316" width="640" height="2407" rx="30" fill="#F9F9FA"/>
<g clip-path="url(#clip1_529_3822)">
<rect width="640" height="383" transform="translate(-309 -293)" fill="white"/>
<path d="M17.1631 1.88174C16.9812 1.14139 16.4051 0.555269 15.7078 0.370179C14.4041 0 9.25005 0 9.25005 0C9.25005 0 4.06564 0 2.76196 0.370179C2.06464 0.555269 1.4886 1.14139 1.30669 1.88174C0.942871 3.17737 0.942871 5.95372 0.942871 5.95372C0.942871 5.95372 0.942871 8.69921 1.30669 10.0257C1.4886 10.766 2.06464 11.3213 2.76196 11.5064C4.06564 11.8457 9.25005 11.8457 9.25005 11.8457C9.25005 11.8457 14.4041 11.8457 15.7078 11.5064C16.4051 11.3213 16.9812 10.766 17.1631 10.0257C17.5269 8.69921 17.5269 5.95372 17.5269 5.95372C17.5269 5.95372 17.5269 3.17737 17.1631 1.88174ZM7.55223 8.45243V3.45501L11.8574 5.95372L7.55223 8.45243Z" fill="#4A919E"/>
</g>
</g>
<defs>
<clipPath id="clip0_529_3822">
<rect x="-309" y="-2316" width="640" height="2407" rx="30" fill="white"/>
</clipPath>
<clipPath id="clip1_529_3822">
<rect width="640" height="383" fill="white" transform="translate(-309 -293)"/>
</clipPath>
</defs>
</svg>
